<mxfile host="app.diagrams.net" modified="2023-04-08T01:44:39.142Z" agent="Mozilla/5.0 (Windows NT 10.0; Win64; x64) AppleWebKit/537.36 (KHTML, like Gecko) Chrome/112.0.0.0 Safari/537.36" etag="nSZzY2_HuU8nyTkKrUvr" version="21.1.5" type="github">
  <diagram name="PÃ¡gina-1" id="rgkT1bfT_BRGF9mYJxtl">
    <mxGraphModel dx="778" dy="558" grid="1" gridSize="10" guides="1" tooltips="1" connect="1" arrows="1" fold="1" page="1" pageScale="1" pageWidth="827" pageHeight="1169" math="0" shadow="0">
      <root>
        <mxCell id="0" />
        <mxCell id="1" parent="0" />
        <mxCell id="Pfwuy8DzIoZdHtLk3A7u-2" style="edgeStyle=orthogonalEdgeStyle;rounded=0;orthogonalLoop=1;jettySize=auto;html=1;" edge="1" parent="1" source="Pfwuy8DzIoZdHtLk3A7u-1">
          <mxGeometry relative="1" as="geometry">
            <mxPoint x="90" y="130" as="targetPoint" />
          </mxGeometry>
        </mxCell>
        <mxCell id="Pfwuy8DzIoZdHtLk3A7u-1" value="inicio" style="strokeWidth=2;html=1;shape=mxgraph.flowchart.terminator;whiteSpace=wrap;" vertex="1" parent="1">
          <mxGeometry x="40" y="40" width="100" height="60" as="geometry" />
        </mxCell>
        <mxCell id="Pfwuy8DzIoZdHtLk3A7u-5" style="edgeStyle=orthogonalEdgeStyle;rounded=0;orthogonalLoop=1;jettySize=auto;html=1;" edge="1" parent="1" source="Pfwuy8DzIoZdHtLk3A7u-3">
          <mxGeometry relative="1" as="geometry">
            <mxPoint x="90" y="220" as="targetPoint" />
          </mxGeometry>
        </mxCell>
        <mxCell id="Pfwuy8DzIoZdHtLk3A7u-3" value="valor1" style="shape=parallelogram;html=1;strokeWidth=2;perimeter=parallelogramPerimeter;whiteSpace=wrap;rounded=1;arcSize=12;size=0.23;" vertex="1" parent="1">
          <mxGeometry x="40" y="130" width="100" height="60" as="geometry" />
        </mxCell>
        <mxCell id="Pfwuy8DzIoZdHtLk3A7u-6" style="edgeStyle=orthogonalEdgeStyle;rounded=0;orthogonalLoop=1;jettySize=auto;html=1;" edge="1" parent="1" source="Pfwuy8DzIoZdHtLk3A7u-4">
          <mxGeometry relative="1" as="geometry">
            <mxPoint x="170" y="250" as="targetPoint" />
          </mxGeometry>
        </mxCell>
        <mxCell id="Pfwuy8DzIoZdHtLk3A7u-4" value="valor2" style="shape=parallelogram;html=1;strokeWidth=2;perimeter=parallelogramPerimeter;whiteSpace=wrap;rounded=1;arcSize=12;size=0.23;" vertex="1" parent="1">
          <mxGeometry x="40" y="220" width="100" height="60" as="geometry" />
        </mxCell>
        <mxCell id="Pfwuy8DzIoZdHtLk3A7u-8" style="edgeStyle=orthogonalEdgeStyle;rounded=0;orthogonalLoop=1;jettySize=auto;html=1;" edge="1" parent="1" source="Pfwuy8DzIoZdHtLk3A7u-7">
          <mxGeometry relative="1" as="geometry">
            <mxPoint x="220" y="310" as="targetPoint" />
          </mxGeometry>
        </mxCell>
        <mxCell id="Pfwuy8DzIoZdHtLk3A7u-9" style="edgeStyle=orthogonalEdgeStyle;rounded=0;orthogonalLoop=1;jettySize=auto;html=1;" edge="1" parent="1" source="Pfwuy8DzIoZdHtLk3A7u-7">
          <mxGeometry relative="1" as="geometry">
            <mxPoint x="300" y="250" as="targetPoint" />
          </mxGeometry>
        </mxCell>
        <mxCell id="Pfwuy8DzIoZdHtLk3A7u-7" value="operador&lt;br&gt;=" style="strokeWidth=2;html=1;shape=mxgraph.flowchart.decision;whiteSpace=wrap;" vertex="1" parent="1">
          <mxGeometry x="170" y="220" width="100" height="60" as="geometry" />
        </mxCell>
        <mxCell id="Pfwuy8DzIoZdHtLk3A7u-11" style="edgeStyle=orthogonalEdgeStyle;rounded=0;orthogonalLoop=1;jettySize=auto;html=1;" edge="1" parent="1" source="Pfwuy8DzIoZdHtLk3A7u-10">
          <mxGeometry relative="1" as="geometry">
            <mxPoint x="350" y="310" as="targetPoint" />
          </mxGeometry>
        </mxCell>
        <mxCell id="Pfwuy8DzIoZdHtLk3A7u-12" style="edgeStyle=orthogonalEdgeStyle;rounded=0;orthogonalLoop=1;jettySize=auto;html=1;" edge="1" parent="1" source="Pfwuy8DzIoZdHtLk3A7u-10">
          <mxGeometry relative="1" as="geometry">
            <mxPoint x="430" y="250" as="targetPoint" />
          </mxGeometry>
        </mxCell>
        <mxCell id="Pfwuy8DzIoZdHtLk3A7u-22" style="edgeStyle=orthogonalEdgeStyle;rounded=0;orthogonalLoop=1;jettySize=auto;html=1;" edge="1" parent="1" source="Pfwuy8DzIoZdHtLk3A7u-10">
          <mxGeometry relative="1" as="geometry">
            <mxPoint x="350" y="190" as="targetPoint" />
          </mxGeometry>
        </mxCell>
        <mxCell id="Pfwuy8DzIoZdHtLk3A7u-10" value="operador&lt;br&gt;&amp;gt;" style="strokeWidth=2;html=1;shape=mxgraph.flowchart.decision;whiteSpace=wrap;" vertex="1" parent="1">
          <mxGeometry x="300" y="220" width="100" height="60" as="geometry" />
        </mxCell>
        <mxCell id="Pfwuy8DzIoZdHtLk3A7u-19" style="edgeStyle=orthogonalEdgeStyle;rounded=0;orthogonalLoop=1;jettySize=auto;html=1;entryX=0.5;entryY=0;entryDx=0;entryDy=0;" edge="1" parent="1" source="Pfwuy8DzIoZdHtLk3A7u-14" target="Pfwuy8DzIoZdHtLk3A7u-18">
          <mxGeometry relative="1" as="geometry" />
        </mxCell>
        <mxCell id="Pfwuy8DzIoZdHtLk3A7u-38" style="edgeStyle=orthogonalEdgeStyle;rounded=0;orthogonalLoop=1;jettySize=auto;html=1;entryX=0.5;entryY=1;entryDx=0;entryDy=0;" edge="1" parent="1" source="Pfwuy8DzIoZdHtLk3A7u-14" target="Pfwuy8DzIoZdHtLk3A7u-24">
          <mxGeometry relative="1" as="geometry" />
        </mxCell>
        <mxCell id="Pfwuy8DzIoZdHtLk3A7u-14" value="operador&lt;br&gt;&amp;lt;" style="strokeWidth=2;html=1;shape=mxgraph.flowchart.decision;whiteSpace=wrap;" vertex="1" parent="1">
          <mxGeometry x="430" y="220" width="100" height="60" as="geometry" />
        </mxCell>
        <mxCell id="Pfwuy8DzIoZdHtLk3A7u-16" style="edgeStyle=orthogonalEdgeStyle;rounded=0;orthogonalLoop=1;jettySize=auto;html=1;exitX=0.5;exitY=1;exitDx=0;exitDy=0;" edge="1" parent="1" source="Pfwuy8DzIoZdHtLk3A7u-15">
          <mxGeometry relative="1" as="geometry">
            <mxPoint x="650" y="70" as="targetPoint" />
            <Array as="points">
              <mxPoint x="220" y="490" />
              <mxPoint x="610" y="490" />
              <mxPoint x="610" y="70" />
            </Array>
          </mxGeometry>
        </mxCell>
        <mxCell id="Pfwuy8DzIoZdHtLk3A7u-15" value="valor1=valor2" style="rounded=1;whiteSpace=wrap;html=1;absoluteArcSize=1;arcSize=14;strokeWidth=2;" vertex="1" parent="1">
          <mxGeometry x="170" y="310" width="100" height="60" as="geometry" />
        </mxCell>
        <mxCell id="Pfwuy8DzIoZdHtLk3A7u-20" style="edgeStyle=orthogonalEdgeStyle;rounded=0;orthogonalLoop=1;jettySize=auto;html=1;exitX=0.5;exitY=1;exitDx=0;exitDy=0;" edge="1" parent="1" source="Pfwuy8DzIoZdHtLk3A7u-17">
          <mxGeometry relative="1" as="geometry">
            <mxPoint x="650" y="70" as="targetPoint" />
            <Array as="points">
              <mxPoint x="350" y="490" />
              <mxPoint x="610" y="490" />
              <mxPoint x="610" y="70" />
              <mxPoint x="640" y="70" />
            </Array>
          </mxGeometry>
        </mxCell>
        <mxCell id="Pfwuy8DzIoZdHtLk3A7u-17" value="valor2" style="rounded=1;whiteSpace=wrap;html=1;absoluteArcSize=1;arcSize=14;strokeWidth=2;" vertex="1" parent="1">
          <mxGeometry x="300" y="310" width="100" height="60" as="geometry" />
        </mxCell>
        <mxCell id="Pfwuy8DzIoZdHtLk3A7u-21" style="edgeStyle=orthogonalEdgeStyle;rounded=0;orthogonalLoop=1;jettySize=auto;html=1;" edge="1" parent="1" source="Pfwuy8DzIoZdHtLk3A7u-18">
          <mxGeometry relative="1" as="geometry">
            <mxPoint x="650" y="70" as="targetPoint" />
            <Array as="points">
              <mxPoint x="480" y="490" />
              <mxPoint x="610" y="490" />
              <mxPoint x="610" y="70" />
            </Array>
          </mxGeometry>
        </mxCell>
        <mxCell id="Pfwuy8DzIoZdHtLk3A7u-18" value="valor1" style="rounded=1;whiteSpace=wrap;html=1;absoluteArcSize=1;arcSize=14;strokeWidth=2;" vertex="1" parent="1">
          <mxGeometry x="430" y="310" width="100" height="60" as="geometry" />
        </mxCell>
        <mxCell id="Pfwuy8DzIoZdHtLk3A7u-26" style="edgeStyle=orthogonalEdgeStyle;rounded=0;orthogonalLoop=1;jettySize=auto;html=1;entryX=0;entryY=0.5;entryDx=0;entryDy=0;" edge="1" parent="1" source="Pfwuy8DzIoZdHtLk3A7u-23" target="Pfwuy8DzIoZdHtLk3A7u-24">
          <mxGeometry relative="1" as="geometry" />
        </mxCell>
        <mxCell id="Pfwuy8DzIoZdHtLk3A7u-42" style="edgeStyle=orthogonalEdgeStyle;rounded=0;orthogonalLoop=1;jettySize=auto;html=1;" edge="1" parent="1" source="Pfwuy8DzIoZdHtLk3A7u-23" target="Pfwuy8DzIoZdHtLk3A7u-34">
          <mxGeometry relative="1" as="geometry" />
        </mxCell>
        <mxCell id="Pfwuy8DzIoZdHtLk3A7u-23" value="valor1" style="rounded=1;whiteSpace=wrap;html=1;absoluteArcSize=1;arcSize=14;strokeWidth=2;" vertex="1" parent="1">
          <mxGeometry x="300" y="130" width="100" height="60" as="geometry" />
        </mxCell>
        <mxCell id="Pfwuy8DzIoZdHtLk3A7u-29" style="edgeStyle=orthogonalEdgeStyle;rounded=0;orthogonalLoop=1;jettySize=auto;html=1;" edge="1" parent="1" source="Pfwuy8DzIoZdHtLk3A7u-24">
          <mxGeometry relative="1" as="geometry">
            <mxPoint x="560" y="160" as="targetPoint" />
          </mxGeometry>
        </mxCell>
        <mxCell id="Pfwuy8DzIoZdHtLk3A7u-43" style="edgeStyle=orthogonalEdgeStyle;rounded=0;orthogonalLoop=1;jettySize=auto;html=1;" edge="1" parent="1" source="Pfwuy8DzIoZdHtLk3A7u-24" target="Pfwuy8DzIoZdHtLk3A7u-35">
          <mxGeometry relative="1" as="geometry" />
        </mxCell>
        <mxCell id="Pfwuy8DzIoZdHtLk3A7u-24" value="valor2" style="rounded=1;whiteSpace=wrap;html=1;absoluteArcSize=1;arcSize=14;strokeWidth=2;" vertex="1" parent="1">
          <mxGeometry x="430" y="130" width="100" height="60" as="geometry" />
        </mxCell>
        <mxCell id="Pfwuy8DzIoZdHtLk3A7u-31" value="erro" style="shape=display;whiteSpace=wrap;html=1;" vertex="1" parent="1">
          <mxGeometry x="170" y="400" width="100" height="60" as="geometry" />
        </mxCell>
        <mxCell id="Pfwuy8DzIoZdHtLk3A7u-32" value="2Âº valor" style="shape=display;whiteSpace=wrap;html=1;" vertex="1" parent="1">
          <mxGeometry x="300" y="400" width="100" height="60" as="geometry" />
        </mxCell>
        <mxCell id="Pfwuy8DzIoZdHtLk3A7u-33" value="2Âº valor" style="shape=display;whiteSpace=wrap;html=1;" vertex="1" parent="1">
          <mxGeometry x="430" y="400" width="100" height="60" as="geometry" />
        </mxCell>
        <mxCell id="Pfwuy8DzIoZdHtLk3A7u-44" style="edgeStyle=orthogonalEdgeStyle;rounded=0;orthogonalLoop=1;jettySize=auto;html=1;" edge="1" parent="1" source="Pfwuy8DzIoZdHtLk3A7u-34">
          <mxGeometry relative="1" as="geometry">
            <mxPoint x="650" y="70" as="targetPoint" />
            <Array as="points">
              <mxPoint x="350" y="20" />
              <mxPoint x="610" y="20" />
              <mxPoint x="610" y="70" />
            </Array>
          </mxGeometry>
        </mxCell>
        <mxCell id="Pfwuy8DzIoZdHtLk3A7u-34" value="1Âº valor" style="shape=display;whiteSpace=wrap;html=1;" vertex="1" parent="1">
          <mxGeometry x="300" y="40" width="100" height="60" as="geometry" />
        </mxCell>
        <mxCell id="Pfwuy8DzIoZdHtLk3A7u-45" style="edgeStyle=orthogonalEdgeStyle;rounded=0;orthogonalLoop=1;jettySize=auto;html=1;" edge="1" parent="1" source="Pfwuy8DzIoZdHtLk3A7u-35">
          <mxGeometry relative="1" as="geometry">
            <mxPoint x="650" y="70" as="targetPoint" />
            <Array as="points">
              <mxPoint x="480" y="20" />
              <mxPoint x="610" y="20" />
              <mxPoint x="610" y="70" />
            </Array>
          </mxGeometry>
        </mxCell>
        <mxCell id="Pfwuy8DzIoZdHtLk3A7u-35" value="1Âº valor" style="shape=display;whiteSpace=wrap;html=1;" vertex="1" parent="1">
          <mxGeometry x="430" y="40" width="100" height="60" as="geometry" />
        </mxCell>
        <mxCell id="Pfwuy8DzIoZdHtLk3A7u-46" value="fim" style="strokeWidth=2;html=1;shape=mxgraph.flowchart.terminator;whiteSpace=wrap;" vertex="1" parent="1">
          <mxGeometry x="650" y="40" width="100" height="60" as="geometry" />
        </mxCell>
      </root>
    </mxGraphModel>
  </diagram>
</mxfile>
